<?xml version="1.0" encoding="UTF-8"?>
<svg id="Layer_1" data-name="Layer 1" xmlns="http://www.w3.org/2000/svg" xmlns:xlink="http://www.w3.org/1999/xlink" viewBox="0 0 318.06 272.28">
  <defs>
    <style>
      .cls-1 {
        letter-spacing: -.03em;
      }

      .cls-2 {
        letter-spacing: 0em;
      }

      .cls-3 {
        letter-spacing: -.02em;
      }

      .cls-4 {
        stroke-width: .76px;
      }

      .cls-4, .cls-5, .cls-6, .cls-7, .cls-8, .cls-9, .cls-10 {
        fill: none;
      }

      .cls-4, .cls-5, .cls-6, .cls-7, .cls-8, .cls-10 {
        stroke-linecap: round;
        stroke-linejoin: round;
      }

      .cls-4, .cls-5, .cls-6, .cls-7, .cls-10 {
        stroke: #000;
      }

      .cls-11 {
        letter-spacing: 0em;
      }

      .cls-12 {
        letter-spacing: 0em;
      }

      .cls-5 {
        stroke-width: .76px;
      }

      .cls-13 {
        letter-spacing: -.07em;
      }

      .cls-14 {
        font-size: 12.1px;
      }

      .cls-14, .cls-15, .cls-16, .cls-17, .cls-18 {
        font-family: Calibri, Calibri;
      }

      .cls-19 {
        letter-spacing: 0em;
      }

      .cls-20 {
        letter-spacing: .02em;
      }

      .cls-21 {
        letter-spacing: .05em;
      }

      .cls-22 {
        letter-spacing: .03em;
      }

      .cls-23 {
        letter-spacing: .01em;
      }

      .cls-24 {
        fill: #fff;
      }

      .cls-24, .cls-25, .cls-26, .cls-27, .cls-28 {
        fill-rule: evenodd;
      }

      .cls-29 {
        letter-spacing: -.07em;
      }

      .cls-30 {
        letter-spacing: 0em;
      }

      .cls-31 {
        letter-spacing: -.07em;
      }

      .cls-32 {
        letter-spacing: .06em;
      }

      .cls-6 {
        stroke-width: 1.51px;
      }

      .cls-33 {
        letter-spacing: -.06em;
      }

      .cls-34 {
        letter-spacing: 0em;
      }

      .cls-35 {
        letter-spacing: -.04em;
      }

      .cls-36 {
        letter-spacing: -.02em;
      }

      .cls-37 {
        letter-spacing: 0em;
      }

      .cls-15 {
        font-size: 11.04px;
      }

      .cls-38 {
        letter-spacing: 0em;
      }

      .cls-7 {
        stroke-width: 1.01px;
      }

      .cls-39 {
        letter-spacing: .02em;
      }

      .cls-40 {
        letter-spacing: .04em;
      }

      .cls-41 {
        letter-spacing: -.06em;
      }

      .cls-42 {
        letter-spacing: -.02em;
      }

      .cls-43 {
        letter-spacing: .02em;
      }

      .cls-44 {
        letter-spacing: 0em;
      }

      .cls-45 {
        clip-path: url(#clippath-1);
      }

      .cls-46 {
        letter-spacing: .06em;
      }

      .cls-47 {
        letter-spacing: -.04em;
      }

      .cls-48 {
        letter-spacing: -.03em;
      }

      .cls-49 {
        letter-spacing: .06em;
      }

      .cls-50 {
        letter-spacing: -.02em;
      }

      .cls-51 {
        letter-spacing: .02em;
      }

      .cls-16 {
        font-size: 9.07px;
      }

      .cls-52 {
        letter-spacing: -.02em;
      }

      .cls-53 {
        letter-spacing: .05em;
      }

      .cls-8 {
        stroke: #0070c0;
        stroke-width: 2.27px;
      }

      .cls-54 {
        letter-spacing: -.05em;
      }

      .cls-55 {
        letter-spacing: .02em;
      }

      .cls-56 {
        letter-spacing: -.03em;
      }

      .cls-57 {
        letter-spacing: 0em;
      }

      .cls-25 {
        fill: #fff2cc;
      }

      .cls-58 {
        letter-spacing: .06em;
      }

      .cls-59 {
        letter-spacing: 0em;
      }

      .cls-60 {
        clip-path: url(#clippath);
      }

      .cls-61 {
        letter-spacing: 0em;
      }

      .cls-62 {
        letter-spacing: .05em;
      }

      .cls-63 {
        letter-spacing: 0em;
      }

      .cls-10 {
        stroke-width: 2.28px;
      }

      .cls-26 {
        fill: #f2f2f2;
      }

      .cls-64 {
        letter-spacing: .03em;
      }

      .cls-65 {
        letter-spacing: .02em;
      }

      .cls-66 {
        letter-spacing: -.03em;
      }

      .cls-67 {
        letter-spacing: .04em;
      }

      .cls-68 {
        letter-spacing: -.02em;
      }

      .cls-69 {
        letter-spacing: -.02em;
      }

      .cls-70 {
        letter-spacing: .04em;
      }

      .cls-71 {
        letter-spacing: 0em;
      }

      .cls-72 {
        letter-spacing: -.06em;
      }

      .cls-17 {
        font-size: 9.83px;
      }

      .cls-73 {
        letter-spacing: .05em;
      }

      .cls-74 {
        font-family: Calibri-Bold, Calibri;
        font-weight: 700;
      }

      .cls-74, .cls-18 {
        font-size: 6.05px;
      }

      .cls-75 {
        letter-spacing: .02em;
      }

      .cls-76 {
        letter-spacing: 0em;
      }

      .cls-27 {
        fill: #d8d8d8;
      }

      .cls-77 {
        letter-spacing: -.03em;
      }

      .cls-78 {
        letter-spacing: -.02em;
      }

      .cls-79 {
        letter-spacing: .05em;
      }

      .cls-80 {
        letter-spacing: .02em;
      }

      .cls-81 {
        letter-spacing: -.03em;
      }

      .cls-82 {
        letter-spacing: -.04em;
      }

      .cls-83 {
        letter-spacing: -.02em;
      }

      .cls-84 {
        letter-spacing: .07em;
      }
    </style>
    <clipPath id="clippath">
      <rect class="cls-9" x="0" width="318" height="272.28"/>
    </clipPath>
    <clipPath id="clippath-1">
      <polygon class="cls-9" points=".06 272.26 318.06 272.26 318.06 .11 .06 .11 .06 272.26 .06 272.26"/>
    </clipPath>
  </defs>
  <g class="cls-60">
    <text class="cls-15" transform="translate(0 10.44)"><tspan x="0" y="0"> </tspan></text>
  </g>
  <g class="cls-45">
    <polygon class="cls-24" points="23.97 80.35 163.05 80.35 163.05 108.51 23.97 108.51 23.97 80.35 23.97 80.35"/>
    <polygon class="cls-5" points="23.97 108.51 163.05 108.51 163.05 80.35 23.97 80.35 23.97 108.51 23.97 108.51 23.97 108.51"/>
    <polygon class="cls-24" points="23.97 53.21 163.05 53.21 163.05 81.55 23.97 81.55 23.97 53.21 23.97 53.21"/>
    <polygon class="cls-5" points="23.97 81.55 163.05 81.55 163.05 53.21 23.97 53.21 23.97 81.55 23.97 81.55 23.97 81.55"/>
    <text class="cls-16" transform="translate(49.91 64.66)"><tspan class="cls-77" x="0" y="0">C</tspan><tspan class="cls-84" x="4.54" y="0">r</tspan><tspan class="cls-34" x="8.32" y="0">e</tspan><tspan class="cls-83" x="12.85" y="0">d</tspan><tspan class="cls-65" x="17.39" y="0">i</tspan><tspan class="cls-11" x="19.65" y="0">t</tspan><tspan class="cls-72" x="22.68" y="0"> </tspan><tspan class="cls-32" x="24.2" y="0">M</tspan><tspan class="cls-54" x="32.51" y="0">g</tspan><tspan class="cls-22" x="36.29" y="0">m</tspan><tspan x="43.84" y="0">t</tspan></text>
    <text class="cls-16" transform="translate(96.86 64.66)"><tspan x="0" y="0">, </tspan></text>
    <text class="cls-16" transform="translate(101.2 64.66)"><tspan class="cls-38" x="0" y="0">I</tspan><tspan class="cls-66" x="2.28" y="0">n</tspan><tspan class="cls-11" x="6.82" y="0">t</tspan><tspan class="cls-34" x="9.85" y="0">e</tspan><tspan class="cls-84" x="14.38" y="0">r</tspan><tspan class="cls-42" x="18.16" y="0">r</tspan><tspan class="cls-83" x="21.18" y="0">up</tspan><tspan x="30.26" y="0">t</tspan></text>
    <text class="cls-16" transform="translate(134.83 64.66)"><tspan x="0" y="0">, </tspan></text>
    <text class="cls-16" transform="translate(68.8 75.54)"><tspan class="cls-52" x="0" y="0">P</tspan><tspan class="cls-75" x="4.54" y="0">a</tspan><tspan class="cls-12" x="9.07" y="0">c</tspan><tspan class="cls-82" x="12.85" y="0">k</tspan><tspan class="cls-34" x="16.64" y="0">e</tspan><tspan class="cls-65" x="21.17" y="0">ti</tspan><tspan class="cls-43" x="26.4" y="0">z</tspan><tspan class="cls-75" x="30.18" y="0">at</tspan><tspan class="cls-41" x="34.71" y="0">i</tspan><tspan class="cls-49" x="39.2" y="0">o</tspan><tspan class="cls-19" x="44.48" y="0">n</tspan></text>
    <polygon class="cls-24" points="23.97 38.4 163.05 38.4 163.05 56.09 23.97 56.09 23.97 38.4 23.97 38.4"/>
    <polygon class="cls-5" points="23.97 56.09 163.05 56.09 163.05 38.4 23.97 38.4 23.97 56.09 23.97 56.09 23.97 56.09"/>
    <text class="cls-16" transform="translate(77.71 49.97)"><tspan class="cls-52" x="0" y="0">P</tspan><tspan class="cls-62" x="4.54" y="0">C</tspan><tspan class="cls-38" x="9.83" y="0">I</tspan><tspan class="cls-34" x="12.11" y="0">e</tspan><tspan class="cls-72" x="16.64" y="0"> </tspan><tspan class="cls-23" x="18.16" y="0">T</tspan><tspan class="cls-75" x="22.68" y="0">il</tspan><tspan x="27.21" y="0">e</tspan></text>
    <line class="cls-4" x1="77.66" y1="28.79" x2="77.66" y2="35.31"/>
    <polygon class="cls-28" points="74.36 29.45 77.66 26.16 80.97 29.45 74.36 29.45 74.36 29.45 74.36 29.45"/>
    <polygon class="cls-28" points="80.97 34.65 77.66 37.95 74.36 34.65 80.97 34.65 80.97 34.65 80.97 34.65"/>
    <line class="cls-4" x1="84.5" y1="28.79" x2="84.5" y2="35.31"/>
    <polygon class="cls-28" points="81.19 29.45 84.5 26.16 87.8 29.45 81.19 29.45 81.19 29.45 81.19 29.45"/>
    <polygon class="cls-28" points="87.8 34.65 84.5 37.95 81.19 34.65 87.8 34.65 87.8 34.65 87.8 34.65"/>
    <line class="cls-4" x1="91.33" y1="28.79" x2="91.33" y2="35.31"/>
    <polygon class="cls-28" points="88.02 29.45 91.33 26.16 94.64 29.45 88.02 29.45 88.02 29.45 88.02 29.45"/>
    <polygon class="cls-28" points="94.64 34.65 91.33 37.95 88.02 34.65 94.64 34.65 94.64 34.65 94.64 34.65"/>
    <line class="cls-4" x1="104.99" y1="28.79" x2="104.99" y2="35.31"/>
    <polygon class="cls-28" points="101.68 29.45 104.99 26.16 108.3 29.45 101.68 29.45 101.68 29.45 101.68 29.45"/>
    <polygon class="cls-28" points="108.3 34.65 104.99 37.95 101.68 34.65 108.3 34.65 108.3 34.65 108.3 34.65"/>
    <polygon class="cls-25" points="28.71 87.11 65.14 87.11 65.14 102.23 28.71 102.23 28.71 87.11 28.71 87.11"/>
    <polygon class="cls-5" points="28.71 102.23 65.14 102.23 65.14 87.11 28.71 87.11 28.71 102.23 28.71 102.23 28.71 102.23"/>
    <text class="cls-18" transform="translate(42.27 96.48)"><tspan class="cls-81" x="0" y="0">C</tspan><tspan class="cls-40" x="3.03" y="0">S</tspan><tspan x="6.05" y="0">R</tspan></text>
    <polygon class="cls-27" points="36.68 6.65 145.97 6.65 145.97 24.34 36.68 24.34 36.68 6.65 36.68 6.65"/>
    <polygon class="cls-8" points="36.68 24.34 145.97 24.34 145.97 6.65 36.68 6.65 36.68 24.34 36.68 24.34 36.68 24.34"/>
    <text class="cls-16" transform="translate(72.33 18.22)"><tspan class="cls-69" x="0" y="0">X</tspan><tspan class="cls-34" x="4.54" y="0">e</tspan><tspan class="cls-46" x="9.07" y="0">o</tspan><tspan class="cls-83" x="14.35" y="0">n</tspan><tspan class="cls-20" x="18.89" y="0"> </tspan><tspan class="cls-47" x="21.15" y="0">H</tspan><tspan class="cls-48" x="26.45" y="0">o</tspan><tspan class="cls-64" x="30.99" y="0">s</tspan><tspan x="34.76" y="0">t</tspan></text>
    <line class="cls-10" x1="84.07" y1="149.57" x2="84.07" y2="117.4"/>
    <polygon class="cls-28" points="87.69 145.96 80.45 145.96 80.45 153.17 87.69 153.17 87.69 145.96 87.69 145.96 87.69 145.96"/>
    <polygon class="cls-28" points="79.25 118.61 84.07 108.99 88.9 118.61 79.25 118.61 79.25 118.61 79.25 118.61"/>
    <line class="cls-10" x1="103.5" y1="112.1" x2="103.5" y2="144.84"/>
    <polygon class="cls-28" points="107.12 108.5 99.88 108.5 99.88 115.71 107.12 115.71 107.12 108.5 107.12 108.5 107.12 108.5"/>
    <polygon class="cls-28" points="108.33 143.64 103.5 153.25 98.67 143.64 108.33 143.64 108.33 143.64 108.33 143.64"/>
    <text class="cls-16" transform="translate(111.49 137.79)"><tspan class="cls-37" x="0" y="0">A</tspan><tspan class="cls-69" x="5.29" y="0">X</tspan><tspan x="9.82" y="0">I</tspan></text>
    <text class="cls-16" transform="translate(123.78 137.79)"><tspan x="0" y="0">-</tspan></text>
    <text class="cls-16" transform="translate(126.57 137.79)"><tspan x="0" y="0">S</tspan></text>
    <polygon class="cls-26" points="11.83 153.97 184.88 153.97 184.88 262.53 11.83 262.53 11.83 153.97 11.83 153.97"/>
    <polygon class="cls-6" points="11.83 262.53 184.88 262.53 184.88 153.97 11.83 153.97 11.83 262.53 11.83 262.53 11.83 262.53"/>
    <text class="cls-14" transform="translate(160.44 254.87)"><tspan class="cls-36" x="0" y="0">A</tspan><tspan class="cls-40" x="6.8" y="0">F</tspan><tspan x="12.85" y="0">U</tspan></text>
    <polygon class="cls-24" points="23.89 154.42 162.97 154.42 162.97 172.11 23.89 172.11 23.89 154.42 23.89 154.42"/>
    <polygon class="cls-5" points="23.89 172.11 162.97 172.11 162.97 154.42 23.89 154.42 23.89 172.11 23.89 172.11 23.89 172.11"/>
    <text class="cls-16" transform="translate(73.63 165.99)"><tspan class="cls-52" x="0" y="0">P</tspan><tspan class="cls-44" x="4.54" y="0">F</tspan></text>
    <text class="cls-16" transform="translate(82.52 165.99)"><tspan x="0" y="0">-</tspan></text>
    <text class="cls-16" transform="translate(85.3 165.99)"><tspan class="cls-55" x="0" y="0">V</tspan><tspan class="cls-35" x="5.28" y="0">F</tspan><tspan class="cls-20" x="9.07" y="0"> </tspan><tspan class="cls-3" x="11.33" y="0">M</tspan><tspan class="cls-58" x="18.9" y="0">u</tspan><tspan x="24.18" y="0">x</tspan></text>
    <polygon class="cls-24" points="78.61 205.63 115.04 205.63 115.04 230.67 78.61 230.67 78.61 205.63 78.61 205.63"/>
    <polygon class="cls-5" points="78.61 230.67 115.04 230.67 115.04 205.63 78.61 205.63 78.61 230.67 78.61 230.67 78.61 230.67"/>
    <text class="cls-16" transform="translate(85.98 220.87)"><tspan class="cls-47" x="0" y="0">H</tspan><tspan x="5.3" y="0">E</tspan></text>
    <text class="cls-16" transform="translate(96.1 220.87)"><tspan x="0" y="0">-</tspan></text>
    <text class="cls-16" transform="translate(98.89 220.87)"><tspan class="cls-76" x="0" y="0">L</tspan><tspan x="3.79" y="0">B</tspan></text>
    <text class="cls-18" transform="translate(71.84 178.46)"><tspan class="cls-36" x="0" y="0">P</tspan><tspan x="3.03" y="0">F</tspan></text>
    <text class="cls-18" transform="translate(77.77 178.46)"><tspan x="0" y="0">2</tspan></text>
    <text class="cls-16" transform="translate(111.16 193.98)"><tspan class="cls-37" x="0" y="0">A</tspan><tspan class="cls-69" x="5.29" y="0">X</tspan><tspan x="9.82" y="0">I</tspan></text>
    <text class="cls-16" transform="translate(123.45 193.98)"><tspan x="0" y="0">-</tspan></text>
    <text class="cls-16" transform="translate(126.24 193.98)"><tspan class="cls-67" x="0" y="0">S</tspan><tspan class="cls-44" x="4.53" y="0">T</tspan></text>
    <polygon class="cls-24" points="201.57 205.63 233.44 205.63 233.44 230.67 201.57 230.67 201.57 205.63 201.57 205.63"/>
    <polygon class="cls-5" points="201.57 230.67 233.44 230.67 233.44 205.63 201.57 205.63 201.57 230.67 201.57 230.67 201.57 230.67"/>
    <text class="cls-17" transform="translate(206.38 215.13)"><tspan class="cls-63" x="0" y="0">M</tspan><tspan class="cls-79" x="8.32" y="0">E</tspan><tspan class="cls-63" x="13.61" y="0">M</tspan><tspan class="cls-71" x="21.94" y="0"> </tspan></text>
    <text class="cls-17" transform="translate(208.18 227.23)"><tspan class="cls-50" x="0" y="0">I</tspan><tspan class="cls-21" x="2.27" y="0">N</tspan><tspan class="cls-68" x="9.07" y="0">T</tspan><tspan x="13.61" y="0">F</tspan></text>
    <line class="cls-5" x1="120.05" y1="217.47" x2="196.56" y2="217.47"/>
    <path class="cls-28" d="M115.04,217.47l6.62-3.3c-1.04,2.07-1.04,4.52,0,6.59l-6.62-3.3h0Z"/>
    <path class="cls-28" d="M201.57,217.47l-6.62,3.3c1.04-2.07,1.04-4.52,0-6.59l6.62,3.3h0Z"/>
    <text class="cls-18" transform="translate(145.09 224.96)"><tspan class="cls-73" x="0" y="0">A</tspan><tspan class="cls-13" x="3.78" y="0">V</tspan><tspan class="cls-51" x="6.8" y="0">M</tspan><tspan x="12.1" y="0">M</tspan></text>
    <text class="cls-16" transform="translate(80.35 97.39)"><tspan class="cls-37" x="0" y="0">A</tspan><tspan class="cls-69" x="5.29" y="0">X</tspan><tspan x="9.82" y="0">I</tspan></text>
    <text class="cls-16" transform="translate(92.64 97.39)"><tspan x="0" y="0">-</tspan></text>
    <text class="cls-16" transform="translate(95.43 97.39)"><tspan class="cls-67" x="0" y="0">S</tspan><tspan class="cls-29" x="4.53" y="0">T</tspan><tspan class="cls-20" x="8.32" y="0"> </tspan><tspan class="cls-37" x="10.58" y="0">A</tspan><tspan class="cls-83" x="15.86" y="0">d</tspan><tspan class="cls-65" x="20.4" y="0">a</tspan><tspan class="cls-83" x="24.93" y="0">p</tspan><tspan class="cls-38" x="29.47" y="0">t</tspan><tspan class="cls-34" x="32.5" y="0">e</tspan><tspan x="37.03" y="0">r</tspan></text>
    <path class="cls-5" d="M174.09,106.19c4.64-1.66,7.84-4.04,8.99-6.72v-26.87h0v-26.87c-1.15-2.67-4.35-5.06-8.99-6.72"/>
    <text class="cls-16" transform="translate(198.73 75.32)"><tspan class="cls-78" x="0" y="0">P</tspan><tspan class="cls-53" x="4.54" y="0">C</tspan><tspan class="cls-59" x="9.83" y="0">I</tspan><tspan class="cls-57" x="12.11" y="0">e</tspan><tspan class="cls-33" x="16.64" y="0"> </tspan><tspan class="cls-70" x="18.16" y="0">S</tspan><tspan class="cls-1" x="22.69" y="0">u</tspan><tspan x="27.23" y="0">b</tspan></text>
    <text class="cls-16" transform="translate(230.92 75.32)"><tspan x="0" y="0">-</tspan></text>
    <text class="cls-16" transform="translate(233.72 75.32)"><tspan class="cls-80" x="0" y="0">s</tspan><tspan class="cls-56" x="3.77" y="0">y</tspan><tspan class="cls-80" x="7.56" y="0">s</tspan><tspan class="cls-59" x="11.34" y="0">t</tspan><tspan class="cls-57" x="14.37" y="0">e</tspan><tspan x="18.9" y="0">m</tspan></text>
    <polygon class="cls-24" points="260.77 182.27 292.64 182.27 292.64 207.31 260.77 207.31 260.77 182.27 260.77 182.27"/>
    <polygon class="cls-5" points="260.77 207.31 292.64 207.31 292.64 182.27 260.77 182.27 260.77 207.31 260.77 207.31 260.77 207.31"/>
    <text class="cls-17" transform="translate(266.31 191.77)"><tspan class="cls-79" x="0" y="0">E</tspan><tspan class="cls-63" x="5.29" y="0">M</tspan><tspan class="cls-50" x="13.61" y="0">I</tspan><tspan class="cls-71" x="15.88" y="0">F</tspan></text>
    <text class="cls-17" transform="translate(268.3 203.87)"><tspan class="cls-61" x="0" y="0">C</tspan><tspan x="5.29" y="0">H</tspan></text>
    <text class="cls-17" transform="translate(279.99 203.87)"><tspan x="0" y="0">0</tspan></text>
    <polygon class="cls-24" points="260.77 228.72 292.64 228.72 292.64 253.76 260.77 253.76 260.77 228.72 260.77 228.72"/>
    <polygon class="cls-5" points="260.77 253.76 292.64 253.76 292.64 228.72 260.77 228.72 260.77 253.76 260.77 253.76 260.77 253.76"/>
    <text class="cls-17" transform="translate(266.31 238.21)"><tspan class="cls-79" x="0" y="0">E</tspan><tspan class="cls-63" x="5.29" y="0">M</tspan><tspan class="cls-50" x="13.61" y="0">I</tspan><tspan class="cls-30" x="15.88" y="0">F</tspan><tspan x="20.42" y="0"> </tspan></text>
    <text class="cls-17" transform="translate(268.2 250.3)"><tspan class="cls-61" x="0" y="0">C</tspan><tspan class="cls-2" x="5.29" y="0">H</tspan><tspan x="11.34" y="0">n</tspan></text>
    <polyline class="cls-5" points="238.45 210.67 247.11 210.67 247.11 194.79 255.76 194.79"/>
    <path class="cls-28" d="M233.44,210.67l6.62-3.3c-1.04,2.07-1.04,4.52,0,6.59l-6.62-3.3h0Z"/>
    <path class="cls-28" d="M260.77,194.79l-6.62,3.3c1.04-2.07,1.04-4.52,0-6.59l6.62,3.3h0Z"/>
    <polyline class="cls-5" points="238.45 226.54 247.11 226.54 247.11 240.13 255.76 240.13"/>
    <path class="cls-28" d="M233.44,226.54l6.62-3.3c-1.04,2.07-1.04,4.52,0,6.59l-6.62-3.3h0Z"/>
    <path class="cls-28" d="M260.77,240.13l-6.62,3.3c1.04-2.07,1.04-4.52,0-6.59l6.62,3.3h0Z"/>
    <text class="cls-18" transform="translate(233.88 184.13)"><tspan class="cls-73" x="0" y="0">A</tspan><tspan class="cls-31" x="3.78" y="0">V</tspan><tspan class="cls-39" x="6.8" y="0">M</tspan><tspan x="12.1" y="0">M</tspan></text>
    <text class="cls-18" transform="translate(233.3 256.7)"><tspan class="cls-73" x="0" y="0">A</tspan><tspan class="cls-31" x="3.78" y="0">V</tspan><tspan class="cls-39" x="6.8" y="0">M</tspan><tspan x="12.1" y="0">M</tspan></text>
    <line class="cls-7" x1="103.66" y1="175.06" x2="103.66" y2="199.06"/>
    <polygon class="cls-28" points="106.33 172.4 100.99 172.4 100.99 177.72 106.33 177.72 106.33 172.4 106.33 172.4 106.33 172.4"/>
    <polygon class="cls-28" points="107.22 198.17 103.66 205.27 100.1 198.17 107.22 198.17 107.22 198.17 107.22 198.17"/>
    <line class="cls-7" x1="91.14" y1="202.73" x2="91.14" y2="178.61"/>
    <polygon class="cls-28" points="93.81 200.07 88.47 200.07 88.47 205.39 93.81 205.39 93.81 200.07 93.81 200.07 93.81 200.07"/>
    <polygon class="cls-28" points="87.57 179.49 91.14 172.4 94.7 179.49 87.57 179.49 87.57 179.49 87.57 179.49"/>
    <text class="cls-74" transform="translate(276.52 215.85)"><tspan x="0" y="0">.</tspan></text>
    <text class="cls-74" transform="translate(276.52 223.11)"><tspan x="0" y="0">.</tspan></text>
  </g>
</svg>