<?xml version="1.0" encoding="UTF-8"?>
<svg id="Layer_1" data-name="Layer 1" xmlns="http://www.w3.org/2000/svg" viewBox="0 0 802.14 488.59">
  <defs>
    <style>
      .cls-1 {
        letter-spacing: 0em;
      }

      .cls-2 {
        letter-spacing: 0em;
      }

      .cls-3 {
        letter-spacing: 0em;
      }

      .cls-4 {
        font-size: 7px;
      }

      .cls-4, .cls-5, .cls-6, .cls-7, .cls-8, .cls-9, .cls-10 {
        font-family: MyriadPro-Cond, 'Myriad Pro';
      }

      .cls-11 {
        letter-spacing: 0em;
      }

      .cls-12 {
        letter-spacing: -.01em;
      }

      .cls-13 {
        letter-spacing: .03em;
      }

      .cls-14 {
        letter-spacing: .03em;
      }

      .cls-5 {
        font-size: 8.5px;
      }

      .cls-15 {
        letter-spacing: 0em;
      }

      .cls-16 {
        letter-spacing: 0em;
      }

      .cls-17 {
        letter-spacing: .03em;
      }

      .cls-18 {
        letter-spacing: 0em;
      }

      .cls-19 {
        fill: #ecc19c;
      }

      .cls-19, .cls-20, .cls-21, .cls-22, .cls-23, .cls-24, .cls-25, .cls-26, .cls-27, .cls-28, .cls-29, .cls-30, .cls-31, .cls-32, .cls-33, .cls-34, .cls-35, .cls-36, .cls-37, .cls-38, .cls-39, .cls-40, .cls-41 {
        stroke-miterlimit: 10;
      }

      .cls-19, .cls-20, .cls-22, .cls-23, .cls-24, .cls-25, .cls-27, .cls-28, .cls-29, .cls-34, .cls-35, .cls-36, .cls-37, .cls-38, .cls-39, .cls-40 {
        stroke: #000;
      }

      .cls-19, .cls-20, .cls-24, .cls-25, .cls-29, .cls-35, .cls-37, .cls-38, .cls-39 {
        stroke-width: .5px;
      }

      .cls-20 {
        stroke-dasharray: 0 0 3.02 3.02;
      }

      .cls-20, .cls-21, .cls-22, .cls-26, .cls-30, .cls-31, .cls-32, .cls-33, .cls-37, .cls-39, .cls-41 {
        fill: none;
      }

      .cls-21 {
        stroke-dasharray: 0 0 5.2 5.2;
      }

      .cls-21, .cls-26, .cls-30, .cls-31, .cls-32, .cls-33, .cls-41 {
        stroke: #676767;
      }

      .cls-42 {
        letter-spacing: .02em;
      }

      .cls-43 {
        letter-spacing: 0em;
      }

      .cls-23 {
        fill: #9fc9eb;
      }

      .cls-44 {
        letter-spacing: 0em;
      }

      .cls-24 {
        fill: #d2edf3;
      }

      .cls-6 {
        font-size: 14px;
      }

      .cls-45 {
        letter-spacing: -.01em;
      }

      .cls-46 {
        letter-spacing: 0em;
      }

      .cls-25 {
        fill: #fffac0;
      }

      .cls-47 {
        letter-spacing: 0em;
      }

      .cls-48 {
        letter-spacing: .03em;
      }

      .cls-49 {
        letter-spacing: 0em;
      }

      .cls-50 {
        letter-spacing: 0em;
      }

      .cls-51 {
        letter-spacing: -.02em;
      }

      .cls-52 {
        letter-spacing: 0em;
      }

      .cls-53 {
        letter-spacing: -.02em;
      }

      .cls-26 {
        stroke-dasharray: 0 0 4.89 4.89;
      }

      .cls-54 {
        letter-spacing: -.04em;
      }

      .cls-55 {
        letter-spacing: .02em;
      }

      .cls-56 {
        letter-spacing: 0em;
      }

      .cls-57 {
        letter-spacing: 0em;
      }

      .cls-58 {
        letter-spacing: 0em;
      }

      .cls-59 {
        letter-spacing: 0em;
      }

      .cls-60 {
        letter-spacing: 0em;
      }

      .cls-27, .cls-61 {
        fill: #d8ecd1;
      }

      .cls-28 {
        fill: #6799cc;
      }

      .cls-62 {
        letter-spacing: 0em;
      }

      .cls-63 {
        letter-spacing: .03em;
      }

      .cls-64 {
        letter-spacing: 0em;
      }

      .cls-65 {
        letter-spacing: -.01em;
      }

      .cls-66 {
        letter-spacing: 0em;
      }

      .cls-67 {
        letter-spacing: -.01em;
      }

      .cls-68 {
        letter-spacing: -.01em;
      }

      .cls-29 {
        fill: #cdcccc;
      }

      .cls-69 {
        letter-spacing: -.01em;
      }

      .cls-30 {
        stroke-dasharray: 0 0 4.88 4.88;
      }

      .cls-70 {
        letter-spacing: -.01em;
      }

      .cls-7 {
        font-size: 10px;
      }

      .cls-71 {
        letter-spacing: 0em;
      }

      .cls-72 {
        letter-spacing: -.03em;
      }

      .cls-73 {
        letter-spacing: 0em;
      }

      .cls-74 {
        letter-spacing: 0em;
      }

      .cls-32 {
        stroke-dasharray: 0 0 3.14 3.14;
      }

      .cls-75 {
        letter-spacing: 0em;
      }

      .cls-76 {
        letter-spacing: -.03em;
      }

      .cls-77 {
        letter-spacing: 0em;
      }

      .cls-78 {
        fill: #676767;
      }

      .cls-79 {
        letter-spacing: 0em;
      }

      .cls-33 {
        stroke-dasharray: 0 0 5.02 5.02;
      }

      .cls-80 {
        letter-spacing: -.06em;
      }

      .cls-81 {
        letter-spacing: .02em;
      }

      .cls-82 {
        letter-spacing: 0em;
      }

      .cls-83 {
        letter-spacing: -.03em;
      }

      .cls-84 {
        letter-spacing: 0em;
      }

      .cls-34 {
        fill: #f89939;
      }

      .cls-85 {
        letter-spacing: -.02em;
      }

      .cls-86 {
        letter-spacing: -.04em;
      }

      .cls-87 {
        letter-spacing: 0em;
      }

      .cls-88 {
        letter-spacing: 0em;
      }

      .cls-89 {
        letter-spacing: 0em;
      }

      .cls-90 {
        letter-spacing: -.02em;
      }

      .cls-91 {
        letter-spacing: 0em;
      }

      .cls-92 {
        letter-spacing: 0em;
      }

      .cls-35 {
        fill: #fbf49c;
      }

      .cls-93 {
        letter-spacing: 0em;
      }

      .cls-36 {
        fill: #999936;
      }

      .cls-94 {
        letter-spacing: 0em;
      }

      .cls-95 {
        letter-spacing: 0em;
      }

      .cls-96 {
        letter-spacing: 0em;
      }

      .cls-97 {
        letter-spacing: -.02em;
      }

      .cls-8 {
        font-size: 8px;
      }

      .cls-98 {
        letter-spacing: 0em;
      }

      .cls-99 {
        letter-spacing: 0em;
      }

      .cls-100 {
        letter-spacing: .01em;
      }

      .cls-101 {
        letter-spacing: 0em;
      }

      .cls-102 {
        letter-spacing: -.01em;
      }

      .cls-37 {
        stroke-dasharray: 0 0 2.9 2.9;
      }

      .cls-103 {
        letter-spacing: 0em;
      }

      .cls-104 {
        letter-spacing: 0em;
      }

      .cls-9 {
        font-size: 9px;
      }

      .cls-105 {
        letter-spacing: -.01em;
      }

      .cls-106 {
        letter-spacing: 0em;
      }

      .cls-107 {
        letter-spacing: -.02em;
      }

      .cls-108 {
        letter-spacing: -.01em;
      }

      .cls-109 {
        letter-spacing: -.02em;
      }

      .cls-110 {
        letter-spacing: 0em;
      }

      .cls-10 {
        font-size: 12px;
      }

      .cls-111 {
        letter-spacing: -.01em;
      }

      .cls-38 {
        fill: #ffead0;
      }

      .cls-40 {
        fill: #7ac943;
      }

      .cls-112 {
        letter-spacing: 0em;
      }

      .cls-113 {
        letter-spacing: -.02em;
      }

      .cls-114 {
        letter-spacing: 0em;
      }

      .cls-41 {
        stroke-dasharray: 0 0 5.44 5.44;
      }

      .cls-115 {
        letter-spacing: 0em;
      }
    </style>
  </defs>
  <rect class="cls-28" x=".5" y="101.63" width="738.75" height="360"/>
  <rect class="cls-34" x="325.75" y="110.18" width="198" height="63"/>
  <text class="cls-10" transform="translate(384.78 138.01)"><tspan class="cls-107" x="0" y="0">P</tspan><tspan class="cls-83" x="4.51" y="0">-</tspan><tspan class="cls-108" x="7.44" y="0">T</tspan><tspan class="cls-104" x="11.56" y="0">ile PC</tspan><tspan class="cls-11" x="31.56" y="0">I</tspan><tspan x="33.9" y="0">e </tspan><tspan class="cls-59" x="40.14" y="0">S</tspan><tspan x="44.53" y="0">ubsys</tspan><tspan class="cls-89" x="65.18" y="0">t</tspan><tspan x="68.15" y="0">em</tspan><tspan x="-20.72" y="14.4">(In</tspan><tspan class="cls-91" x="-10.43" y="14.4">c</tspan><tspan class="cls-66" x="-6.88" y="14.4">dules</tspan><tspan class="cls-76" x="12.8" y="14.4"> </tspan><tspan class="cls-108" x="14.26" y="14.4">T</tspan><tspan x="18.38" y="14.4">il</tspan><tspan class="cls-105" x="22.88" y="14.4">e</tspan><tspan x="27.11" y="14.4">, and </tspan><tspan class="cls-46" x="47.22" y="14.4">A</tspan><tspan x="52.36" y="14.4">XI-S adap</tspan><tspan class="cls-89" x="87.33" y="14.4">t</tspan><tspan x="90.29" y="14.4">er)</tspan></text>
  <rect class="cls-27" x="300.9" y="191.63" width="363.84" height="197.01"/>
  <rect class="cls-34" x="684.5" y="191.63" width="45" height="198"/>
  <rect class="cls-34" x="342.5" y="407.59" width="252" height="45"/>
  <rect class="cls-23" x="9.5" y="200.63" width="280.25" height="63" rx="12" ry="12"/>
  <text class="cls-10" transform="translate(420.78 434.59)"><tspan x="0" y="0">E</tspan><tspan class="cls-76" x="4.25" y="0">-</tspan><tspan class="cls-108" x="7.18" y="0">T</tspan><tspan x="11.29" y="0">ile </tspan><tspan class="cls-62" x="22.03" y="0">E</tspan><tspan x="26.23" y="0">thernet </tspan><tspan class="cls-16" x="55.64" y="0">S</tspan><tspan x="60.03" y="0">ubsys</tspan><tspan class="cls-89" x="80.69" y="0">t</tspan><tspan x="83.65" y="0">em</tspan></text>
  <text class="cls-10" transform="translate(710.75 326.98) rotate(-90)"><tspan x="0" y="0">Memo</tspan><tspan class="cls-63" x="23.58" y="0">r</tspan><tspan x="26.87" y="0">y </tspan><tspan class="cls-59" x="32.9" y="0">S</tspan><tspan x="37.29" y="0">ubsys</tspan><tspan class="cls-115" x="57.95" y="0">t</tspan><tspan class="cls-104" x="60.91" y="0">em</tspan></text>
  <rect class="cls-36" x="257.75" y="268.59" width="144" height="26" rx="8.5" ry="8.5" transform="translate(48.16 611.34) rotate(-90)"/>
  <rect class="cls-34" x="216.5" y="290.63" width="54" height="99"/>
  <text class="cls-10" transform="translate(231.25 335.65)"><tspan x="0" y="0">QSFP 1 </tspan><tspan class="cls-51" x="-4.51" y="14.4">C</tspan><tspan class="cls-66" x="-.25" y="14.4">o</tspan><tspan class="cls-82" x="4.34" y="14.4">n</tspan><tspan class="cls-104" x="9.13" y="14.4">t</tspan><tspan class="cls-70" x="12.19" y="14.4">r</tspan><tspan x="15" y="14.4">oller</tspan></text>
  <rect class="cls-34" x="81.5" y="111.1" width="145.25" height="63"/>
  <text class="cls-10" transform="translate(129.77 146.12)"><tspan x="0" y="0">PMCI Module</tspan></text>
  <g>
    <rect class="cls-61" x="405.5" y="281.63" width="253.25" height="93.02"/>
    <g>
      <polyline class="cls-39" points="658.75 373.15 658.75 374.65 657.25 374.65"/>
      <line class="cls-20" x1="654.23" y1="374.65" x2="408.51" y2="374.65"/>
      <polyline class="cls-39" points="407 374.65 405.5 374.65 405.5 373.15"/>
      <line class="cls-37" x1="405.5" y1="370.25" x2="405.5" y2="284.58"/>
      <polyline class="cls-39" points="405.5 283.13 405.5 281.63 407 281.63"/>
      <line class="cls-20" x1="410.02" y1="281.63" x2="655.74" y2="281.63"/>
      <polyline class="cls-39" points="657.25 281.63 658.75 281.63 658.75 283.13"/>
      <line class="cls-37" x1="658.75" y1="286.03" x2="658.75" y2="371.7"/>
    </g>
  </g>
  <rect class="cls-40" x="454.73" y="290.63" width="195.02" height="79.18"/>
  <g>
    <line class="cls-22" x1="379.75" y1="79.62" x2="379.75" y2="105.57"/>
    <polygon points="376.26 80.64 379.75 74.59 383.24 80.64 376.26 80.64"/>
    <polygon points="376.26 104.55 379.75 110.59 383.24 104.55 376.26 104.55"/>
  </g>
  <g>
    <line class="cls-22" x1="406.75" y1="79.62" x2="406.75" y2="105.57"/>
    <polygon points="403.26 80.64 406.75 74.59 410.24 80.64 403.26 80.64"/>
    <polygon points="403.26 104.55 406.75 110.59 410.24 104.55 403.26 104.55"/>
  </g>
  <g>
    <line class="cls-22" x1="433.75" y1="79.62" x2="433.75" y2="105.57"/>
    <polygon points="430.26 80.64 433.75 74.59 437.24 80.64 430.26 80.64"/>
    <polygon points="430.26 104.55 433.75 110.59 437.24 104.55 430.26 104.55"/>
  </g>
  <g>
    <line class="cls-22" x1="460.75" y1="79.62" x2="460.75" y2="105.57"/>
    <polygon points="457.26 80.64 460.75 74.59 464.24 80.64 457.26 80.64"/>
    <polygon points="457.26 104.55 460.75 110.59 464.24 104.55 457.26 104.55"/>
  </g>
  <g>
    <line class="cls-22" x1="415.75" y1="457.62" x2="415.75" y2="483.57"/>
    <polygon points="412.26 458.64 415.75 452.59 419.24 458.64 412.26 458.64"/>
    <polygon points="412.26 482.55 415.75 488.59 419.24 482.55 412.26 482.55"/>
  </g>
  <g>
    <line class="cls-22" x1="518.75" y1="457.62" x2="518.75" y2="483.57"/>
    <polygon points="515.26 458.64 518.75 452.59 522.24 458.64 515.26 458.64"/>
    <polygon points="515.26 482.55 518.75 488.59 522.24 482.55 515.26 482.55"/>
  </g>
  <g>
    <line class="cls-22" x1="518.5" y1="358.65" x2="518.5" y2="402.61"/>
    <polygon points="515.01 359.68 518.5 353.63 521.99 359.68 515.01 359.68"/>
    <polygon points="515.01 401.59 518.5 407.63 521.99 401.59 515.01 401.59"/>
  </g>
  <g>
    <line class="cls-22" x1="734.77" y1="246.59" x2="760.73" y2="246.59"/>
    <polygon points="735.79 250.08 729.75 246.59 735.79 243.1 735.79 250.08"/>
    <polygon points="759.71 250.08 765.75 246.59 759.71 243.1 759.71 250.08"/>
  </g>
  <g>
    <line class="cls-22" x1="734.77" y1="273.59" x2="760.73" y2="273.59"/>
    <polygon points="735.79 277.08 729.75 273.59 735.79 270.1 735.79 277.08"/>
    <polygon points="759.71 277.08 765.75 273.59 759.71 270.1 759.71 277.08"/>
  </g>
  <g>
    <line class="cls-22" x1="734.77" y1="308.59" x2="760.73" y2="308.59"/>
    <polygon points="735.79 312.08 729.75 308.59 735.79 305.1 735.79 312.08"/>
    <polygon points="759.71 312.08 765.75 308.59 759.71 305.1 759.71 312.08"/>
  </g>
  <g>
    <line class="cls-22" x1="734.77" y1="335.59" x2="760.73" y2="335.59"/>
    <polygon points="735.79 339.08 729.75 335.59 735.79 332.1 735.79 339.08"/>
    <polygon points="759.71 339.08 765.75 335.59 759.71 332.1 759.71 339.08"/>
  </g>
  <text class="cls-10" transform="translate(111.17 236.59)"><tspan class="cls-1" x="0" y="0">B</tspan><tspan class="cls-104" x="5.09" y="0">oa</tspan><tspan class="cls-65" x="14.05" y="0">r</tspan><tspan x="16.86" y="0">d </tspan><tspan class="cls-97" x="23.53" y="0">P</tspan><tspan class="cls-104" x="28.02" y="0">eriphe</tspan><tspan class="cls-47" x="51.56" y="0">r</tspan><tspan class="cls-104" x="54.47" y="0">al </tspan><tspan class="cls-54" x="63.01" y="0">F</tspan><tspan class="cls-104" x="66.71" y="0">abric</tspan></text>
  <text class="cls-10" transform="translate(333.75 320.53) rotate(-90)"><tspan x="0" y="0">AFU </tspan><tspan class="cls-97" x="16.73" y="0">P</tspan><tspan x="21.22" y="0">eriphe</tspan><tspan class="cls-82" x="44.76" y="0">r</tspan><tspan x="47.66" y="0">al </tspan><tspan class="cls-54" x="56.21" y="0">F</tspan><tspan class="cls-104" x="59.9" y="0">abric</tspan></text>
  <rect class="cls-23" x="559.75" y="110.59" width="52.75" height="45.04"/>
  <text class="cls-10" transform="translate(574.48 128.63)"><tspan x="0" y="0">Reset </tspan><tspan class="cls-51" x="-7" y="14.4">C</tspan><tspan class="cls-66" x="-2.74" y="14.4">o</tspan><tspan class="cls-82" x="1.86" y="14.4">n</tspan><tspan class="cls-104" x="6.65" y="14.4">t</tspan><tspan class="cls-70" x="9.71" y="14.4">r</tspan><tspan x="12.52" y="14.4">oller</tspan></text>
  <text class="cls-7" transform="translate(536.09 202.33)"><tspan x="0" y="0">AFU </tspan><tspan class="cls-93" x="13.94" y="0">S</tspan><tspan x="17.51" y="0">t</tspan><tspan class="cls-95" x="20.06" y="0">a</tspan><tspan x="23.61" y="0">tic and </tspan><tspan class="cls-74" x="45.84" y="0">D</tspan><tspan x="50.38" y="0">ynamic Region</tspan><tspan x="32.67" y="12">(afu_</tspan><tspan class="cls-52" x="50.1" y="12">t</tspan><tspan x="52.57" y="12">op)</tspan></text>
  <text class="cls-9" transform="translate(457.31 302.41)"><tspan x="0" y="0">PR Region (po</tspan><tspan class="cls-55" x="38.7" y="0">r</tspan><tspan x="41.15" y="0">t_slot)</tspan></text>
  <text class="cls-8" transform="translate(409.87 288.63)"><tspan x="0" y="0">PR </tspan><tspan class="cls-106" x="7.72" y="0">S</tspan><tspan class="cls-3" x="10.58" y="0">t</tspan><tspan class="cls-87" x="12.62" y="0">a</tspan><tspan x="15.46" y="0">tic </tspan><tspan class="cls-85" x="22.64" y="0">L</tspan><tspan class="cls-3" x="25.26" y="0">ogic (po</tspan><tspan class="cls-42" x="44.94" y="0">r</tspan><tspan class="cls-3" x="47.12" y="0">t_gas</tspan><tspan class="cls-109" x="61.57" y="0">k</tspan><tspan x="64.29" y="0">et)</tspan></text>
  <g>
    <line class="cls-22" x1="294.77" y1="236.59" x2="311.71" y2="236.59"/>
    <polygon points="295.79 240.08 289.75 236.59 295.79 233.1 295.79 240.08"/>
    <polygon points="310.69 240.08 316.73 236.59 310.69 233.1 310.69 240.08"/>
  </g>
  <g>
    <line class="cls-22" x1="644.52" y1="352.63" x2="679.48" y2="352.34"/>
    <polygon points="645.57 356.11 639.5 352.67 645.52 349.13 645.57 356.11"/>
    <polygon points="678.48 355.84 684.5 352.3 678.43 348.86 678.48 355.84"/>
  </g>
  <g>
    <line class="cls-22" x1="644.52" y1="343.64" x2="679.48" y2="343.45"/>
    <polygon points="645.56 347.12 639.5 343.67 645.53 340.14 645.56 347.12"/>
    <polygon points="678.47 346.95 684.5 343.42 678.44 339.97 678.47 346.95"/>
  </g>
  <g>
    <line class="cls-22" x1="644.52" y1="334.65" x2="679.48" y2="334.56"/>
    <polygon points="645.55 338.14 639.5 334.67 645.54 331.16 645.55 338.14"/>
    <polygon points="678.46 338.05 684.5 334.54 678.45 331.07 678.46 338.05"/>
  </g>
  <g>
    <line class="cls-22" x1="644.52" y1="325.67" x2="679.48" y2="325.67"/>
    <polygon points="645.54 329.16 639.5 325.67 645.54 322.18 645.54 329.16"/>
    <polygon points="678.46 329.16 684.5 325.67 678.46 322.18 678.46 329.16"/>
  </g>
  <g>
    <line class="cls-22" x1="527.35" y1="137.88" x2="554.73" y2="137.64"/>
    <polygon points="528.4 141.36 522.32 137.93 528.34 134.38 528.4 141.36"/>
    <polygon points="553.74 141.14 559.75 137.59 553.67 134.16 553.74 141.14"/>
  </g>
  <g>
    <line class="cls-22" x1="153.5" y1="178.62" x2="153.5" y2="195.57"/>
    <polygon points="150.01 179.64 153.5 173.59 156.99 179.64 150.01 179.64"/>
    <polygon points="150.01 194.55 153.5 200.59 156.99 194.55 150.01 194.55"/>
  </g>
  <g>
    <line class="cls-22" x1="244.75" y1="268.62" x2="244.75" y2="285.57"/>
    <polygon points="241.26 269.64 244.75 263.59 248.24 269.64 241.26 269.64"/>
    <polygon points="241.26 284.55 244.75 290.59 248.24 284.55 241.26 284.55"/>
  </g>
  <g>
    <line class="cls-31" x1="271.75" y1="200.59" x2="271.75" y2="198.09"/>
    <line class="cls-41" x1="271.75" y1="192.65" x2="271.75" y2="151.82"/>
    <line class="cls-31" x1="271.75" y1="149.09" x2="271.75" y2="146.59"/>
  </g>
  <g>
    <line class="cls-31" x1="320.73" y1="146.59" x2="318.23" y2="146.59"/>
    <line class="cls-26" x1="313.34" y1="146.59" x2="276.69" y2="146.59"/>
    <line class="cls-31" x1="274.25" y1="146.59" x2="271.75" y2="146.59"/>
    <polygon class="cls-78" points="319.71 143.1 325.75 146.59 319.71 150.08 319.71 143.1"/>
  </g>
  <g>
    <line class="cls-31" x1="339.29" y1="357.18" x2="339.32" y2="359.68"/>
    <line class="cls-21" x1="339.38" y1="364.88" x2="339.69" y2="393.49"/>
    <line class="cls-31" x1="339.72" y1="396.09" x2="339.75" y2="398.59"/>
    <polygon class="cls-78" points="336.8 357.94 339.25 353.59 341.79 357.88 336.8 357.94"/>
  </g>
  <g>
    <line class="cls-31" x1="703.75" y1="398.59" x2="701.25" y2="398.59"/>
    <line class="cls-33" x1="696.23" y1="398.59" x2="347.51" y2="398.63"/>
    <line class="cls-31" x1="345" y1="398.63" x2="342.5" y2="398.63"/>
  </g>
  <g>
    <line class="cls-31" x1="703.75" y1="393.18" x2="703.75" y2="395.68"/>
    <line class="cls-31" x1="703.75" y1="396.09" x2="703.75" y2="398.59"/>
    <polygon class="cls-78" points="701.26 393.91 703.75 389.59 706.24 393.91 701.26 393.91"/>
  </g>
  <rect class="cls-34" x="84.75" y=".5" width="140.75" height="82.04"/>
  <text class="cls-10" transform="translate(132.7 30.64)"><tspan x="0" y="0">I</tspan><tspan class="cls-82" x="2.39" y="0">n</tspan><tspan class="cls-89" x="7.18" y="0">t</tspan><tspan x="10.14" y="0">el </tspan><tspan class="cls-77" x="18.67" y="0">MA</tspan><tspan class="cls-104" x="30.91" y="0">X10</tspan><tspan class="cls-1" x="-14.12" y="14.4">B</tspan><tspan x="-9.04" y="14.4">oa</tspan><tspan class="cls-70" x="-.07" y="14.4">r</tspan><tspan class="cls-104" x="2.74" y="14.4">d Manageme</tspan><tspan class="cls-82" x="51.13" y="14.4">n</tspan><tspan x="55.92" y="14.4">t</tspan><tspan class="cls-51" x="4.42" y="28.8">C</tspan><tspan class="cls-66" x="8.68" y="28.8">o</tspan><tspan class="cls-82" x="13.27" y="28.8">n</tspan><tspan class="cls-104" x="18.06" y="28.8">t</tspan><tspan class="cls-70" x="21.12" y="28.8">r</tspan><tspan x="23.93" y="28.8">oller</tspan></text>
  <g>
    <line class="cls-22" x1="155.13" y1="88.62" x2="155.13" y2="105.57"/>
    <polygon points="151.63 89.64 155.13 83.59 158.62 89.64 151.63 89.64"/>
    <polygon points="151.63 104.55 155.13 110.59 158.62 104.55 151.63 104.55"/>
  </g>
  <text class="cls-10" transform="translate(701.81 452.63)"><tspan x="0" y="0">FPGA</tspan></text>
  <g>
    <line class="cls-22" x1="424.75" y1="178.62" x2="424.75" y2="195.57"/>
    <polygon points="421.26 179.64 424.75 173.59 428.24 179.64 421.26 179.64"/>
    <polygon points="421.26 194.55 424.75 200.59 428.24 194.55 421.26 194.55"/>
  </g>
  <rect class="cls-36" x="361.75" y="200.59" width="160.75" height="9.04"/>
  <rect class="cls-36" x="414.5" y="228.63" width="168.28" height="9"/>
  <g>
    <line class="cls-22" x1="441.5" y1="214.65" x2="441.5" y2="223.61"/>
    <polygon points="438.01 215.68 441.5 209.63 444.99 215.68 438.01 215.68"/>
    <polygon points="438.01 222.59 441.5 228.63 444.99 222.59 438.01 222.59"/>
  </g>
  <text class="cls-9" transform="translate(414.5 208.63)"><tspan x="0" y="0">AFU I</tspan><tspan class="cls-114" x="14.34" y="0">n</tspan><tspan class="cls-75" x="17.93" y="0">t</tspan><tspan class="cls-2" x="20.15" y="0">e</tspan><tspan class="cls-13" x="23.42" y="0">r</tspan><tspan class="cls-2" x="25.88" y="0">fa</tspan><tspan class="cls-114" x="31.21" y="0">c</tspan><tspan x="33.88" y="0">e Handler</tspan></text>
  <rect class="cls-36" x="365.58" y="219.1" width="35.18" height="35.18"/>
  <text class="cls-9" transform="translate(372.83 239.33)"><tspan x="0" y="0">ST2MM</tspan></text>
  <text class="cls-9" transform="translate(463.73 236.94)"><tspan class="cls-110" x="0" y="0">A</tspan><tspan class="cls-84" x="3.85" y="0">XI4-</tspan><tspan class="cls-112" x="15.15" y="0">S</tspan><tspan x="18.36" y="0">t</tspan><tspan class="cls-68" x="20.65" y="0">r</tspan><tspan x="22.76" y="0">eam PF/VF Mux</tspan></text>
  <g>
    <line class="cls-22" x1="410.91" y1="233.13" x2="404.35" y2="233.13"/>
    <polygon points="410.18 230.64 414.5 233.13 410.18 235.62 410.18 230.64"/>
    <polygon points="405.08 230.64 400.76 233.13 405.08 235.62 405.08 230.64"/>
  </g>
  <g>
    <line class="cls-22" x1="362.78" y1="234.3" x2="347.34" y2="234.3"/>
    <polygon points="362.05 231.8 366.37 234.3 362.05 236.79 362.05 231.8"/>
    <polygon points="348.07 231.8 343.75 234.3 348.07 236.79 348.07 231.8"/>
  </g>
  <text class="cls-8" transform="translate(403.83 243.96)"><tspan x="0" y="0">PF0</tspan></text>
  <text class="cls-8" transform="translate(524.84 247.84)"><tspan x="0" y="0">PF0.VF1</tspan></text>
  <text class="cls-8" transform="translate(553.5 247.84)"><tspan x="0" y="0">PF0.VF0</tspan></text>
  <text class="cls-8" transform="translate(430.48 247.69)"><tspan x="0" y="0">PF3</tspan></text>
  <rect class="cls-36" x="541.71" y="321.5" width="97.79" height="40.22"/>
  <text class="cls-9" transform="translate(578.69 344.26)"><tspan x="0" y="0">HE-MEM</tspan></text>
  <g>
    <line class="cls-22" x1="426.61" y1="248.17" x2="426.61" y2="241.61"/>
    <polygon points="429.1 247.44 426.61 251.75 424.12 247.44 429.1 247.44"/>
    <polygon points="429.1 242.33 426.61 238.02 424.12 242.33 429.1 242.33"/>
  </g>
  <rect class="cls-34" x="623.75" y="110.63" width="106.75" height="72"/>
  <text class="cls-10" transform="translate(649.21 142.95)"><tspan x="0" y="0">Ha</tspan><tspan class="cls-65" x="9.92" y="0">r</tspan><tspan class="cls-104" x="12.73" y="0">d </tspan><tspan class="cls-91" x="19.4" y="0">P</tspan><tspan class="cls-70" x="24.12" y="0">r</tspan><tspan x="26.93" y="0">o</tspan><tspan class="cls-91" x="31.52" y="0">c</tspan><tspan x="35.08" y="0">essor </tspan><tspan class="cls-105" x="14.62" y="14.4">S</tspan><tspan x="18.83" y="14.4">ys</tspan><tspan class="cls-115" x="26.45" y="14.4">t</tspan><tspan class="cls-104" x="29.41" y="14.4">em</tspan></text>
  <text class="cls-6" transform="translate(743.5 355.63)"><tspan x="0" y="0">DDR I</tspan><tspan class="cls-57" x="23.17" y="0">n</tspan><tspan class="cls-64" x="28.76" y="0">t</tspan><tspan class="cls-103" x="32.21" y="0">e</tspan><tspan class="cls-48" x="37.29" y="0">r</tspan><tspan x="41.13" y="0">fa</tspan><tspan class="cls-57" x="49.42" y="0">c</tspan><tspan x="53.56" y="0">e</tspan></text>
  <text class="cls-6" transform="translate(742.55 159.91)"><tspan x="0" y="0">DDR I</tspan><tspan class="cls-57" x="23.17" y="0">n</tspan><tspan class="cls-64" x="28.76" y="0">t</tspan><tspan class="cls-103" x="32.21" y="0">e</tspan><tspan class="cls-48" x="37.29" y="0">r</tspan><tspan x="41.13" y="0">fa</tspan><tspan class="cls-57" x="49.42" y="0">c</tspan><tspan x="53.56" y="0">e</tspan></text>
  <g>
    <line class="cls-22" x1="735.77" y1="141.29" x2="761.73" y2="141.29"/>
    <polygon points="736.79 144.78 730.75 141.29 736.79 137.8 736.79 144.78"/>
    <polygon points="760.71 144.78 766.75 141.29 760.71 137.8 760.71 144.78"/>
  </g>
  <g>
    <line class="cls-22" x1="639.97" y1="187.65" x2="639.97" y2="210.59"/>
    <polygon points="636.48 188.68 639.97 182.63 643.46 188.68 636.48 188.68"/>
    <polygon points="636.48 209.57 639.97 215.62 643.46 209.57 636.48 209.57"/>
  </g>
  <rect class="cls-34" x="613.54" y="215.62" width="35.18" height="28.71"/>
  <text class="cls-9" transform="translate(624.67 228.59)"><tspan class="cls-90" x="0" y="0">C</tspan><tspan class="cls-84" x="3.2" y="0">o</tspan><tspan class="cls-110" x="6.64" y="0">p</tspan><tspan x="10.17" y="0">y</tspan><tspan class="cls-106" x="-2.83" y="10.8">E</tspan><tspan x=".32" y="10.8">ngine</tspan></text>
  <rect class="cls-36" x="494.54" y="322.5" width="39.32" height="40.22"/>
  <text class="cls-9" transform="translate(503.04 345.25)"><tspan x="0" y="0">HE-HSSI</tspan></text>
  <text class="cls-8" transform="translate(467.9 247.69)"><tspan x="0" y="0">PF2</tspan></text>
  <g>
    <line class="cls-22" x1="465.05" y1="247.61" x2="465.05" y2="241.05"/>
    <polygon points="467.54 246.88 465.05 251.2 462.56 246.88 467.54 246.88"/>
    <polygon points="467.54 241.78 465.05 237.46 462.56 241.78 467.54 241.78"/>
  </g>
  <g>
    <line class="cls-22" x1="523.29" y1="318.89" x2="522.62" y2="240.53"/>
    <polygon points="525.78 318.14 523.32 322.48 520.79 318.18 525.78 318.14"/>
    <polygon points="525.12 241.23 522.59 236.94 520.13 241.28 525.12 241.23"/>
  </g>
  <g>
    <line class="cls-22" x1="552.58" y1="318.44" x2="551.9" y2="240.43"/>
    <polygon points="555.06 317.69 552.61 322.03 550.08 317.74 555.06 317.69"/>
    <polygon points="554.4 241.14 551.87 236.84 549.42 241.18 554.4 241.14"/>
  </g>
  <rect class="cls-34" x="576.5" y="299.61" width="63" height="18.02"/>
  <text class="cls-9" transform="translate(591.58 311.26)"><tspan x="0" y="0">HE-MEM</tspan><tspan class="cls-86" x="23.83" y="0">-</tspan><tspan class="cls-72" x="26.03" y="0">T</tspan><tspan x="28.93" y="0">G</tspan></text>
  <text class="cls-8" transform="translate(581.78 247.84)"><tspan x="0" y="0">PF0.VF2</tspan></text>
  <text class="cls-8" transform="translate(590.6 230.8)"><tspan x="0" y="0">PF4</tspan></text>
  <g>
    <line class="cls-22" x1="675.5" y1="308.63" x2="675.5" y2="323.04"/>
    <polygon points="673.01 322.31 675.5 326.63 677.99 322.31 673.01 322.31"/>
  </g>
  <g>
    <line class="cls-22" x1="643.09" y1="308.63" x2="675.5" y2="308.63"/>
    <polygon points="643.82 311.12 639.5 308.63 643.82 306.14 643.82 311.12"/>
  </g>
  <rect class="cls-34" x="354.73" y="357.65" width="40.58" height="22.98"/>
  <rect class="cls-34" x="354.73" y="322.03" width="40.58" height="22.98"/>
  <g>
    <line class="cls-22" x1="375.23" y1="405.01" x2="375.05" y2="384.22"/>
    <polygon points="377.72 404.25 375.26 408.59 372.73 404.3 377.72 404.25"/>
    <polygon points="377.55 384.93 375.02 380.63 372.56 384.97 377.55 384.93"/>
  </g>
  <g>
    <line class="cls-22" x1="375.11" y1="354.01" x2="375.05" y2="347.26"/>
    <polygon points="377.6 353.26 375.14 357.59 372.61 353.3 377.6 353.26"/>
    <polygon points="377.55 347.97 375.02 343.67 372.56 348.01 377.55 347.97"/>
  </g>
  <g>
    <line class="cls-22" x1="375.25" y1="309.05" x2="375.25" y2="318.89"/>
    <polygon points="372.76 318.16 375.25 322.48 377.74 318.16 372.76 318.16"/>
  </g>
  <g>
    <line class="cls-22" x1="346.34" y1="308.48" x2="375.25" y2="308.48"/>
    <polygon points="347.07 310.97 342.75 308.48 347.07 305.98 347.07 310.97"/>
  </g>
  <text class="cls-5" transform="translate(358.9 331.59)"><tspan x="0" y="0">M</tspan><tspan class="cls-92" x="5.09" y="0">C</tspan><tspan x="8.33" y="0">TP </tspan><tspan class="cls-18" x="16.06" y="0">M</tspan><tspan x="21.09" y="0">g</tspan><tspan class="cls-79" x="24.48" y="0">m</tspan><tspan x="29.69" y="0">t</tspan><tspan x="4.32" y="10.19">I</tspan><tspan class="cls-79" x="6.01" y="10.19">n</tspan><tspan class="cls-18" x="9.4" y="10.19">t</tspan><tspan x="11.5" y="10.19">e</tspan><tspan class="cls-17" x="14.58" y="10.19">r</tspan><tspan class="cls-43" x="16.91" y="10.19">fa</tspan><tspan class="cls-79" x="21.94" y="10.19">c</tspan><tspan class="cls-96" x="24.45" y="10.19">e</tspan></text>
  <text class="cls-5" transform="translate(366.96 366.91)"><tspan class="cls-100" x="0" y="0">T</tspan><tspan x="3.12" y="0">X/</tspan><tspan class="cls-100" x="8.83" y="0">R</tspan><tspan class="cls-43" x="12.42" y="0">X</tspan><tspan x="-3.73" y="10.19">Pkt </tspan><tspan class="cls-12" x="6.17" y="10.19">F</tspan><tspan x="9" y="10.19">il</tspan><tspan class="cls-58" x="12.19" y="10.19">t</tspan><tspan x="14.29" y="10.19">er</tspan></text>
  <rect class="cls-34" x="143.25" y="290.63" width="54" height="99"/>
  <rect class="cls-23" x="18.5" y="290.22" width="108" height="99"/>
  <g>
    <line class="cls-22" x1="170.25" y1="268.65" x2="170.25" y2="285.61"/>
    <polygon points="166.76 269.68 170.25 263.63 173.74 269.68 166.76 269.68"/>
    <polygon points="166.76 284.59 170.25 290.63 173.74 284.59 166.76 284.59"/>
  </g>
  <g>
    <line class="cls-22" x1="72.5" y1="268.65" x2="72.5" y2="285.61"/>
    <polygon points="69.01 269.68 72.5 263.63 75.99 269.68 69.01 269.68"/>
    <polygon points="69.01 284.59 72.5 290.63 75.99 284.59 69.01 284.59"/>
  </g>
  <text class="cls-10" transform="translate(25.68 336.04)"><tspan x="0" y="0">FPGA Managme</tspan><tspan class="cls-82" x="58.63" y="0">n</tspan><tspan x="63.42" y="0">t </tspan><tspan class="cls-60" x="68.36" y="0">E</tspan><tspan x="72.56" y="0">ngine</tspan><tspan x="26.19" y="14.4">w/</tspan><tspan class="cls-46" x="36.35" y="14.4">F</tspan><tspan x="40.41" y="14.4">ME CSR</tspan></text>
  <text class="cls-10" transform="translate(155.23 335.63)"><tspan x="0" y="0">QSFP 0 </tspan><tspan class="cls-51" x="-4.51" y="14.4">C</tspan><tspan class="cls-66" x="-.25" y="14.4">o</tspan><tspan class="cls-82" x="4.34" y="14.4">n</tspan><tspan class="cls-104" x="9.13" y="14.4">t</tspan><tspan class="cls-70" x="12.19" y="14.4">r</tspan><tspan x="15" y="14.4">oller</tspan></text>
  <g>
    <line class="cls-22" x1="243.52" y1="394.65" x2="243.94" y2="483.57"/>
    <polygon points="240.04 395.69 243.5 389.63 247.02 395.66 240.04 395.69"/>
    <polygon points="240.45 482.57 243.97 488.59 247.43 482.53 240.45 482.57"/>
  </g>
  <g>
    <line class="cls-22" x1="171.59" y1="394.65" x2="172.01" y2="483.57"/>
    <polygon points="168.11 395.69 171.57 389.63 175.09 395.66 168.11 395.69"/>
    <polygon points="168.52 482.57 172.04 488.59 175.5 482.53 168.52 482.57"/>
  </g>
  <text class="cls-6" transform="translate(176.77 479.63)"><tspan class="cls-80" x="0" y="0">T</tspan><tspan x="4.1" y="0">o QSFP 0</tspan></text>
  <text class="cls-6" transform="translate(250.02 479.63)"><tspan class="cls-80" x="0" y="0">T</tspan><tspan x="4.1" y="0">o QSFP 1</tspan></text>
  <text class="cls-6" transform="translate(421.02 479.63)"><tspan class="cls-80" x="0" y="0">T</tspan><tspan x="4.1" y="0">o QSFP 0</tspan></text>
  <text class="cls-6" transform="translate(524.02 479.63)"><tspan class="cls-80" x="0" y="0">T</tspan><tspan x="4.1" y="0">o QSFP 1</tspan></text>
  <g>
    <line class="cls-31" x1="324.03" y1="357.22" x2="324.04" y2="359.72"/>
    <line class="cls-30" x1="324.08" y1="364.6" x2="324.47" y2="420.69"/>
    <line class="cls-31" x1="324.48" y1="423.13" x2="324.5" y2="425.63"/>
    <polygon class="cls-78" points="321.54 357.97 324 353.63 326.52 357.93 321.54 357.97"/>
  </g>
  <g>
    <line class="cls-31" x1="338.91" y1="425.63" x2="336.41" y2="425.63"/>
    <line class="cls-32" x1="333.27" y1="425.63" x2="328.57" y2="425.63"/>
    <line class="cls-31" x1="327" y1="425.63" x2="324.5" y2="425.63"/>
    <polygon class="cls-78" points="338.18 423.14 342.5 425.63 338.18 428.12 338.18 423.14"/>
  </g>
  <g>
    <line class="cls-22" x1="400.09" y1="377.63" x2="504.4" y2="377.63"/>
    <polygon points="400.82 380.12 396.5 377.63 400.82 375.14 400.82 380.12"/>
  </g>
  <g>
    <line class="cls-22" x1="504.4" y1="377.63" x2="504.37" y2="366.31"/>
    <polygon points="506.87 367.04 504.37 362.72 501.88 367.05 506.87 367.04"/>
  </g>
  <g>
    <line class="cls-22" x1="401.24" y1="297.03" x2="347.01" y2="297.03"/>
    <polygon points="400.52 294.54 404.83 297.03 400.52 299.53 400.52 294.54"/>
    <polygon points="347.74 294.54 343.42 297.03 347.74 299.53 347.74 294.54"/>
  </g>
  <g>
    <line class="cls-22" x1="587.8" y1="232.63" x2="607.48" y2="232.63"/>
    <polygon points="588.82 236.12 582.78 232.63 588.82 229.14 588.82 236.12"/>
    <polygon points="606.46 236.12 612.5 232.63 606.46 229.14 606.46 236.12"/>
  </g>
  <g>
    <line class="cls-22" x1="579.15" y1="296.02" x2="578.67" y2="240.88"/>
    <polygon points="581.64 295.27 579.18 299.61 576.65 295.32 581.64 295.27"/>
    <polygon points="581.17 241.59 578.64 237.29 576.19 241.63 581.17 241.59"/>
  </g>
  <rect class="cls-36" x="450.73" y="250.75" width="31.05" height="22.98"/>
  <text class="cls-5" transform="translate(458.93 264.87)"><tspan x="0" y="0">HE-LB</tspan></text>
  <text class="cls-8" transform="translate(495.75 247.84)"><tspan x="0" y="0">PF1.VF0</tspan></text>
  <rect class="cls-35" x="409.45" y="293.85" width="31.49" height="9"/>
  <text class="cls-4" transform="translate(415.82 300.41)"><tspan x="0" y="0">DFH/CSR</tspan></text>
  <rect class="cls-35" x="409.45" y="307.13" width="31.49" height="9"/>
  <text class="cls-4" transform="translate(414.32 313.68)"><tspan class="cls-99" x="0" y="0">U</tspan><tspan class="cls-44" x="3.14" y="0">ser </tspan><tspan class="cls-88" x="10.54" y="0">C</tspan><tspan x="13.12" y="0">lock</tspan></text>
  <rect class="cls-35" x="410.01" y="320.63" width="31.49" height="9"/>
  <text class="cls-4" transform="translate(411.87 327.18)"><tspan x="0" y="0">PR </tspan><tspan class="cls-113" x="6.75" y="0">C</tspan><tspan x="9.24" y="0">o</tspan><tspan class="cls-57" x="11.92" y="0">n</tspan><tspan x="14.71" y="0">t</tspan><tspan class="cls-111" x="16.5" y="0">r</tspan><tspan x="18.14" y="0">oller</tspan></text>
  <rect class="cls-35" x="410.01" y="333.63" width="31.49" height="9"/>
  <text class="cls-4" transform="translate(412.79 340.18)"><tspan class="cls-45" x="0" y="0">F</tspan><tspan class="cls-111" x="2.34" y="0">r</tspan><tspan x="3.98" y="0">e</tspan><tspan class="cls-56" x="6.52" y="0">e</tspan><tspan class="cls-67" x="9.01" y="0">z</tspan><tspan x="11.12" y="0">e </tspan><tspan class="cls-53" x="14.76" y="0">L</tspan><tspan x="17.05" y="0">ogic</tspan></text>
  <rect class="cls-35" x="410.01" y="346.63" width="31.49" height="9"/>
  <text class="cls-4" transform="translate(412.96 353.18)"><tspan x="0" y="0">Remo</tspan><tspan class="cls-50" x="12.42" y="0">t</tspan><tspan class="cls-49" x="14.15" y="0">e STP</tspan></text>
  <rect class="cls-35" x="410.01" y="360.63" width="31.49" height="9"/>
  <text class="cls-4" transform="translate(417.24 367.18)"><tspan x="0" y="0">Reset IP</tspan></text>
  <rect class="cls-19" x="367.87" y="1.77" width="72" height="18"/>
  <rect class="cls-38" x="456.62" y="19.81" width="72" height="18"/>
  <rect class="cls-25" x="367.87" y="19.77" width="72" height="18"/>
  <rect class="cls-25" x="456.62" y="37.81" width="72" height="18"/>
  <rect class="cls-24" x="367.87" y="37.77" width="71.73" height="18"/>
  <rect class="cls-29" x="312.62" y="55.77" width="217.25" height="18"/>
  <text class="cls-10" transform="translate(370.82 14.29)"><tspan class="cls-89" x="0" y="0">M</tspan><tspan class="cls-66" x="7.09" y="0">g</tspan><tspan class="cls-82" x="11.88" y="0">m</tspan><tspan class="cls-104" x="19.25" y="0">t </tspan><tspan class="cls-101" x="24.19" y="0">A</tspan><tspan class="cls-104" x="29.38" y="0">ppli</tspan><tspan class="cls-73" x="43.45" y="0">c</tspan><tspan class="cls-71" x="47.11" y="0">a</tspan><tspan x="51.37" y="0">tion</tspan></text>
  <text class="cls-10" transform="translate(462.64 32.33)"><tspan class="cls-71" x="0" y="0">U</tspan><tspan x="5.38" y="0">ser </tspan><tspan class="cls-101" x="18.06" y="0">A</tspan><tspan class="cls-104" x="23.24" y="0">ppli</tspan><tspan class="cls-73" x="37.32" y="0">c</tspan><tspan class="cls-15" x="40.98" y="0">a</tspan><tspan x="45.24" y="0">tion</tspan></text>
  <text class="cls-10" transform="translate(464.6 50.33)"><tspan x="0" y="0">Ex:</tspan><tspan class="cls-76" x="10.66" y="0"> </tspan><tspan class="cls-97" x="12.12" y="0">V</tspan><tspan x="16.87" y="0">i</tspan><tspan class="cls-81" x="19.08" y="0">r</tspan><tspan x="22.34" y="0">tio </tspan><tspan class="cls-98" x="34.09" y="0">D</tspan><tspan x="39.5" y="0">ri</tspan><tspan class="cls-102" x="44.69" y="0">v</tspan><tspan x="48.69" y="0">er</tspan></text>
  <text class="cls-10" transform="translate(382.98 32.29)"><tspan x="0" y="0">OFS Lib</tspan><tspan class="cls-82" x="26.83" y="0">r</tspan><tspan class="cls-104" x="29.74" y="0">a</tspan><tspan class="cls-14" x="34.1" y="0">r</tspan><tspan class="cls-66" x="37.39" y="0">y</tspan></text>
  <text class="cls-10" transform="translate(384.62 50.29)"><tspan x="0" y="0">PC</tspan><tspan class="cls-60" x="9.26" y="0">I</tspan><tspan x="11.6" y="0">e </tspan><tspan class="cls-98" x="17.84" y="0">D</tspan><tspan class="cls-104" x="23.26" y="0">ri</tspan><tspan class="cls-69" x="28.44" y="0">v</tspan><tspan class="cls-104" x="32.45" y="0">er</tspan></text>
  <text class="cls-10" transform="translate(402.8 68.29)"><tspan class="cls-69" x="0" y="0">X</tspan><tspan x="4.55" y="0">eon </tspan><tspan class="cls-62" x="20.24" y="0">H</tspan><tspan x="25.75" y="0">ost</tspan></text>
  <rect class="cls-19" x="312.62" y="37.81" width="36" height="18"/>
  <text class="cls-10" transform="translate(322.24 50.33)"><tspan x="0" y="0">IPMI</tspan></text>
  <rect class="cls-34" x="412.02" y="251.64" width="32.49" height="21.84"/>
  <text class="cls-5" transform="translate(418.07 260.04)"><tspan x="0" y="0">HE-Null</tspan><tspan x="1.81" y="10.19">(</tspan><tspan class="cls-94" x="3.96" y="10.19">S</tspan><tspan x="6.99" y="10.19">tub)</tspan></text>
  <g>
    <line class="cls-22" x1="493.19" y1="248.05" x2="493.19" y2="240.37"/>
    <polygon points="495.69 247.32 493.19 251.64 490.7 247.32 495.69 247.32"/>
    <polygon points="495.69 241.1 493.19 236.78 490.7 241.1 495.69 241.1"/>
  </g>
  <rect class="cls-34" x="486.13" y="251.99" width="32.49" height="21.49"/>
  <text class="cls-5" transform="translate(492.43 261.02)"><tspan x="0" y="0">HE-Null</tspan><tspan x="1.81" y="10.19">(</tspan><tspan class="cls-94" x="3.96" y="10.19">S</tspan><tspan x="6.99" y="10.19">tub)</tspan></text>
</svg>