<?xml version="1.0" encoding="UTF-8"?>
<svg id="Layer_1" data-name="Layer 1" xmlns="http://www.w3.org/2000/svg" viewBox="0 0 206.54 260.84">
  <defs>
    <style>
      .cls-1 {
        letter-spacing: -.04em;
      }

      .cls-2 {
        letter-spacing: -.01em;
      }

      .cls-3 {
        letter-spacing: 0em;
      }

      .cls-4 {
        fill: none;
      }

      .cls-4, .cls-5 {
        stroke: #000;
        stroke-miterlimit: 10;
      }

      .cls-6 {
        letter-spacing: 0em;
      }

      .cls-7 {
        fill: #fff;
        font-family: MyriadPro-Cond, 'Myriad Pro';
        font-size: 14px;
      }

      .cls-8 {
        letter-spacing: 0em;
      }

      .cls-9 {
        letter-spacing: -.01em;
      }

      .cls-10 {
        letter-spacing: -.01em;
      }

      .cls-11 {
        letter-spacing: 0em;
      }

      .cls-12 {
        letter-spacing: 0em;
      }

      .cls-13 {
        letter-spacing: 0em;
      }

      .cls-14 {
        letter-spacing: 0em;
      }

      .cls-5 {
        fill: #046799;
        stroke-width: .5px;
      }

      .cls-15 {
        letter-spacing: 0em;
      }

      .cls-16 {
        letter-spacing: 0em;
      }

      .cls-17 {
        letter-spacing: -.01em;
      }

      .cls-18 {
        letter-spacing: 0em;
      }

      .cls-19 {
        letter-spacing: 0em;
      }

      .cls-20 {
        letter-spacing: -.02em;
      }

      .cls-21 {
        letter-spacing: -.06em;
      }

      .cls-22 {
        letter-spacing: 0em;
      }

      .cls-23 {
        letter-spacing: -.04em;
      }

      .cls-24 {
        letter-spacing: .01em;
      }

      .cls-25 {
        letter-spacing: 0em;
      }
    </style>
  </defs>
  <rect class="cls-5" x=".67" y=".25" width="205.2" height="44.38"/>
  <text class="cls-7" transform="translate(17.91 25.94)"><tspan x="0" y="0">1 - </tspan><tspan class="cls-9" x="13.69" y="0">E</tspan><tspan class="cls-12" x="18.45" y="0">v</tspan><tspan x="23.18" y="0">alu</tspan><tspan class="cls-13" x="36.53" y="0">a</tspan><tspan class="cls-3" x="41.5" y="0">t</tspan><tspan x="44.95" y="0">e &amp; </tspan><tspan class="cls-6" x="61.31" y="0">S</tspan><tspan x="66.46" y="0">ele</tspan><tspan class="cls-24" x="79.29" y="0">c</tspan><tspan x="83.73" y="0">t a Re</tspan><tspan class="cls-19" x="107.6" y="0">f</tspan><tspan x="110.75" y="0">e</tspan><tspan class="cls-9" x="115.83" y="0">r</tspan><tspan class="cls-22" x="119.11" y="0">en</tspan><tspan class="cls-11" x="129.86" y="0">c</tspan><tspan x="134.01" y="0">e </tspan><tspan class="cls-8" x="141.29" y="0">D</tspan><tspan x="147.63" y="0">esign</tspan></text>
  <rect class="cls-5" x=".25" y="71.59" width="206.04" height="45"/>
  <text class="cls-7" transform="translate(4.05 98.59)"><tspan x="0" y="0">2 - Ma</tspan><tspan class="cls-2" x="27.17" y="0">k</tspan><tspan class="cls-22" x="31.92" y="0">e Ha</tspan><tspan class="cls-9" x="50.78" y="0">r</tspan><tspan class="cls-22" x="54.05" y="0">d</tspan><tspan class="cls-13" x="59.64" y="0">w</tspan><tspan x="67.44" y="0">a</tspan><tspan class="cls-17" x="72.53" y="0">r</tspan><tspan x="75.81" y="0">e &amp; </tspan><tspan class="cls-6" x="92.16" y="0">S</tspan><tspan x="97.31" y="0">o</tspan><tspan class="cls-16" x="102.67" y="0">f</tspan><tspan class="cls-15" x="105.94" y="0">t</tspan><tspan class="cls-12" x="109.65" y="0">w</tspan><tspan x="117.44" y="0">a</tspan><tspan class="cls-9" x="122.54" y="0">r</tspan><tspan x="125.82" y="0">e </tspan><tspan class="cls-20" x="133.1" y="0">C</tspan><tspan class="cls-22" x="138.08" y="0">us</tspan><tspan class="cls-14" x="147.7" y="0">t</tspan><tspan x="151.16" y="0">omiz</tspan><tspan class="cls-12" x="172.16" y="0">a</tspan><tspan x="177.12" y="0">tions</tspan></text>
  <rect class="cls-5" x=".35" y="143.59" width="205.84" height="45"/>
  <text class="cls-7" transform="translate(17.56 169.59)"><tspan x="0" y="0">3 - </tspan><tspan class="cls-25" x="13.69" y="0">G</tspan><tspan class="cls-22" x="19.84" y="0">ene</tspan><tspan class="cls-11" x="35.67" y="0">r</tspan><tspan class="cls-13" x="39.06" y="0">a</tspan><tspan class="cls-14" x="44.03" y="0">t</tspan><tspan x="47.49" y="0">e and</tspan><tspan class="cls-23" x="71.12" y="0"> </tspan><tspan class="cls-1" x="72.83" y="0">V</tspan><tspan x="78.2" y="0">erify </tspan><tspan class="cls-10" x="99.57" y="0">y</tspan><tspan class="cls-22" x="104.23" y="0">our </tspan><tspan class="cls-18" x="120.83" y="0">N</tspan><tspan x="127.29" y="0">ew </tspan><tspan class="cls-8" x="142.49" y="0">D</tspan><tspan class="cls-22" x="148.83" y="0">esign </tspan></text>
  <rect class="cls-5" x=".35" y="215.59" width="205.84" height="45"/>
  <text class="cls-7" transform="translate(60.89 241.59)"><tspan x="0" y="0">4 -</tspan><tspan class="cls-23" x="11.49" y="0"> </tspan><tspan class="cls-21" x="13.2" y="0">T</tspan><tspan x="17.3" y="0">est on Ha</tspan><tspan class="cls-9" x="57.01" y="0">r</tspan><tspan x="60.28" y="0">d</tspan><tspan class="cls-12" x="65.87" y="0">w</tspan><tspan x="73.67" y="0">a</tspan><tspan class="cls-9" x="78.76" y="0">r</tspan><tspan x="82.04" y="0">e</tspan></text>
  <g>
    <line class="cls-4" x1="103.27" y1="44.59" x2="103.27" y2="67.29"/>
    <polygon points="100.28 66.41 103.27 71.59 106.26 66.41 100.28 66.41"/>
  </g>
  <g>
    <line class="cls-4" x1="103.27" y1="188.59" x2="103.27" y2="211.29"/>
    <polygon points="100.28 210.41 103.27 215.59 106.26 210.41 100.28 210.41"/>
  </g>
  <g>
    <line class="cls-4" x1="103.27" y1="116.59" x2="103.27" y2="139.29"/>
    <polygon points="100.28 138.41 103.27 143.59 106.26 138.41 100.28 138.41"/>
  </g>
</svg>